HIERARCHY
ROOT Hips
{
 OFFSET 0.000000 0.000000 0.000000
 CHANNELS 6 Xposition Yposition Zposition Yrotation Xrotation Zrotation
 JOINT Chest
 {
  OFFSET 0.000000 9.857222 0.000240
  CHANNELS 3 Yrotation Xrotation Zrotation
  JOINT Chest2
  {
   OFFSET 0.000000 10.876940 -0.000436
   CHANNELS 3 Yrotation Xrotation Zrotation
   JOINT Chest3
   {
    OFFSET 0.000000 9.827798 0.000000
    CHANNELS 3 Yrotation Xrotation Zrotation
    JOINT Chest4
    {
     OFFSET 0.000000 9.827798 0.000000
     CHANNELS 3 Yrotation Xrotation Zrotation
     JOINT Neck
     {
      OFFSET 0.000000 13.831992 0.000000
      CHANNELS 3 Yrotation Xrotation Zrotation
      JOINT Head
      {
       OFFSET 0.000000 9.147643 -0.001036
       CHANNELS 3 Yrotation Xrotation Zrotation
       End Site
       {
        OFFSET 0.000000 17.515799 -0.000541
       }
      }
     }
     JOINT RightCollar
     {
      OFFSET -3.001579 7.717577 0.000000
      CHANNELS 3 Yrotation Xrotation Zrotation
      JOINT RightShoulder
      {
       OFFSET -14.002642 0.000000 0.000000
       CHANNELS 3 Yrotation Xrotation Zrotation
       JOINT RightElbow
       {
        OFFSET -30.053852 0.000000 0.000000
        CHANNELS 3 Yrotation Xrotation Zrotation
        JOINT RightWrist
        {
         OFFSET -24.564923 0.000000 -0.000000
         CHANNELS 3 Yrotation Xrotation Zrotation
         End Site
         {
          OFFSET -18.334355 0.000000 0.000000
         }
        }
       }
      }
     }
     JOINT LeftCollar
     {
      OFFSET 3.001579 7.717577 0.000000
      CHANNELS 3 Yrotation Xrotation Zrotation
      JOINT LeftShoulder
      {
       OFFSET 14.002642 0.000000 0.000000
       CHANNELS 3 Yrotation Xrotation Zrotation
       JOINT LeftElbow
       {
        OFFSET 30.053852 0.000000 0.000000
        CHANNELS 3 Yrotation Xrotation Zrotation
        JOINT LeftWrist
        {
         OFFSET 24.564923 0.000000 -0.000000
         CHANNELS 3 Yrotation Xrotation Zrotation
         End Site
         {
          OFFSET 18.334355 0.000000 0.000000
         }
        }
       }
      }
     }
    }
   }
  }
 }
 JOINT RightHip
 {
  OFFSET -8.003235 -0.001175 -0.000120
  CHANNELS 3 Yrotation Xrotation Zrotation
  JOINT RightKnee
  {
   OFFSET 0.000000 -41.759727 0.000113
   CHANNELS 3 Yrotation Xrotation Zrotation
   JOINT RightAnkle
   {
    OFFSET 0.000000 -40.728748 0.000159
    CHANNELS 3 Yrotation Xrotation Zrotation
    JOINT RightToe
    {
     OFFSET 0.000000 -6.515296 14.732841
     CHANNELS 3 Yrotation Xrotation Zrotation
     End Site
     {
      OFFSET 0.000000 -1.502839 6.412115
     }
    }
   }
  }
 }
 JOINT LeftHip
 {
  OFFSET 8.003235 -0.001175 -0.000120
  CHANNELS 3 Yrotation Xrotation Zrotation
  JOINT LeftKnee
  {
   OFFSET 0.000000 -41.759727 0.000113
   CHANNELS 3 Yrotation Xrotation Zrotation
   JOINT LeftAnkle
   {
    OFFSET 0.000000 -40.728748 0.000159
    CHANNELS 3 Yrotation Xrotation Zrotation
    JOINT LeftToe
    {
     OFFSET 0.000000 -6.515296 14.732841
     CHANNELS 3 Yrotation Xrotation Zrotation
     End Site
     {
      OFFSET 0.000000 -1.502839 6.412115
     }
    }
   }
  }
 }
}
MOTION
Frames: 11
Frame Time: 0.016667
37.286495 84.950272 7.050133 59.139421 12.282946 -0.328530 -1.742357 -3.567716 0.665687 0.145158 -1.403209 0.329461 0.145158 -1.403209 0.329461 0.109620 -1.052329 0.247417 -1.227590 15.154914 -0.412646 -2.141990 -8.038470 -0.309564 6.331470 9.841762 9.840564 20.150613 24.079234 20.246250 59.853863 49.065317 -38.439056 -5.335330 -2.217555 -75.257403 -18.720306 13.769683 -14.678332 -9.510951 13.647255 -15.917628 -59.548337 26.326561 67.945066 12.638344 24.264928 41.198371 -1.098418 5.664628 1.167123 -4.260330 10.412781 -9.428755 -2.033325 -19.760369 2.353237 -0.103686 -8.601919 7.706069 -21.666578 13.058224 7.975703 15.557321 4.717876 -22.902828 -1.465337 -20.857030 1.245064 -0.905108 -1.202077 0.169877
37.669691 84.822824 7.155395 59.170343 12.574419 -0.341452 -1.706841 -3.526600 0.706468 0.142524 -1.389697 0.343090 0.142524 -1.389697 0.343090 0.107668 -1.042193 0.257629 -1.219878 15.049815 -0.438259 -2.118696 -8.234071 -0.358953 6.228804 9.643375 9.779070 18.814654 24.071738 20.078954 61.181539 49.728222 -38.414628 -5.382525 -2.226777 -75.250199 -18.378845 13.244863 -14.482502 -9.114941 14.061815 -16.554779 -60.365554 26.920490 68.513605 12.388895 24.355284 41.076962 -1.184753 5.667180 1.132864 -4.231630 10.371416 -9.459008 -2.062155 -19.828425 2.382466 -0.150951 -8.775507 7.796815 -21.759680 13.052833 7.998959 15.615814 4.730942 -23.039568 -1.512714 -20.953163 1.229399 -0.898905 -1.218747 0.180260
38.045770 84.703010 7.260790 59.172601 12.811611 -0.405306 -1.705982 -3.467444 0.791342 0.129232 -1.369485 0.361112 0.129232 -1.369485 0.361112 0.097729 -1.027038 0.271111 -1.206884 14.907632 -0.457803 -2.087987 -8.498480 -0.398568 6.130328 9.402984 9.710238 17.620746 23.983687 19.980463 62.575538 50.459535 -38.202085 -5.403439 -2.223315 -75.282411 -18.252438 12.670009 -14.332282 -8.425055 14.564785 -17.275463 -61.064854 27.578432 69.085900 12.264857 24.369693 41.032780 -1.148276 5.690702 1.160182 -4.278327 10.376791 -9.496724 -2.088755 -19.865707 2.387258 -0.192406 -8.996354 7.901087 -21.703317 13.123187 8.105152 15.557662 4.709864 -23.213384 -1.619940 -21.004742 1.191350 -0.831670 -1.259888 0.229743
38.403480 84.588465 7.373191 59.188332 13.071632 -0.486521 -1.766625 -3.377651 0.914220 0.101765 -1.333927 0.384414 0.101765 -1.333927 0.384414 0.077159 -1.000382 0.288520 -1.212324 14.674405 -0.499431 -2.083909 -8.932095 -0.471485 6.271325 9.196388 9.753809 16.259627 23.846992 19.644164 63.924176 51.083946 -37.990301 -5.420081 -2.224817 -75.316188 -17.848664 11.804532 -13.925706 -7.919766 15.562014 -18.307048 -61.671440 28.281237 69.833478 12.289625 24.320281 41.151992 -1.058575 5.680897 1.231562 -4.378893 10.388603 -9.550329 -2.091521 -19.889516 2.372902 -0.249504 -9.230638 8.009681 -21.587073 13.178969 8.305199 15.440742 4.684010 -23.423402 -1.795397 -21.021296 1.111427 -0.703138 -1.322418 0.321050
38.745204 84.473984 7.478264 59.243173 13.377161 -0.518870 -1.869814 -3.265793 1.016618 0.069974 -1.295532 0.409224 0.069974 -1.295532 0.409224 0.053346 -0.971603 0.307053 -1.255021 14.373186 -0.575765 -2.136602 -9.492135 -0.594507 6.440417 9.009820 9.861446 14.896396 23.731153 19.167936 65.158805 51.613741 -37.904071 -5.438239 -2.232639 -75.332048 -17.241250 11.235912 -13.421059 -7.528628 16.296343 -19.326846 -62.411455 29.143362 70.398503 12.480155 24.193175 41.385579 -1.010115 5.624597 1.254516 -4.489561 10.391658 -9.597342 -2.049295 -19.943500 2.353727 -0.333951 -9.428593 8.111518 -21.481383 13.156640 8.498036 15.307812 4.666897 -23.633080 -1.947185 -21.038313 0.998780 -0.591491 -1.374204 0.416253
39.068415 84.360397 7.579130 59.348858 13.643408 -0.502417 -2.051187 -3.149965 1.120703 0.016164 -1.254107 0.436006 0.016164 -1.254107 0.436006 0.013018 -0.940570 0.327025 -1.281910 14.049259 -0.678324 -2.148937 -10.094764 -0.773049 6.530741 8.793691 9.880244 13.799541 23.819447 18.839144 66.152435 52.114076 -38.122432 -5.448548 -2.230803 -75.336450 -16.868454 11.148385 -13.156621 -6.748908 17.004460 -19.968105 -63.227094 29.929356 71.068330 12.909719 23.976078 41.744973 -1.034921 5.602820 1.239883 -4.557352 10.396776 -9.647918 -2.001009 -20.019956 2.333703 -0.432653 -9.600525 8.206959 -21.413765 13.140566 8.679392 15.108802 4.641382 -23.876180 -2.092208 -21.026856 0.890234 -0.481101 -1.438196 0.513000
39.378368 84.254859 7.685607 59.477760 13.805443 -0.448311 -2.257407 -3.036454 1.212333 -0.048030 -1.200870 0.457157 -0.048030 -1.200870 0.457157 -0.035123 -0.900689 0.342761 -1.284869 13.727475 -0.776789 -2.116912 -10.693415 -0.953991 6.562039 8.620687 9.855672 12.870788 23.883105 18.653093 67.074690 52.686854 -38.380399 -5.429968 -2.225267 -75.355110 -16.683056 11.031176 -12.943483 -5.755088 17.761788 -20.572690 -64.031751 30.829639 71.508213 13.548933 23.712975 42.219498 -1.056749 5.673810 1.224005 -4.599128 10.414197 -9.726128 -1.999755 -20.079931 2.300316 -0.509649 -9.788709 8.312702 -21.437639 13.197591 8.778722 14.927557 4.614907 -24.115211 -2.108036 -21.010766 0.739911 -0.398675 -1.510399 0.599090
39.687589 84.158079 7.782051 59.588545 13.980035 -0.346915 -2.471463 -2.970289 1.255946 -0.116496 -1.164373 0.474770 -0.116496 -1.164373 0.474770 -0.086465 -0.873371 0.355844 -1.238266 13.419500 -0.852595 -1.999251 -11.266230 -1.113005 6.656281 8.405592 9.858987 11.943612 24.004852 18.454376 68.011709 53.208384 -38.561152 -5.399890 -2.218407 -75.386048 -16.286984 10.738624 -12.640468 -4.966526 18.891825 -21.257529 -64.785187 31.731124 71.941520 14.262609 23.446694 42.805094 -1.034311 5.715918 1.177193 -4.655631 10.445104 -9.823226 -2.043309 -20.126591 2.249937 -0.541016 -9.989900 8.443249 -21.521919 13.217410 8.767928 14.823137 4.586406 -24.299321 -2.027865 -20.992805 0.595222 -0.433718 -1.574402 0.630581
39.983981 84.062846 7.869328 59.630631 14.259159 -0.273658 -2.679550 -2.910082 1.303538 -0.187436 -1.145513 0.496205 -0.187436 -1.145513 0.496205 -0.139642 -0.859288 0.371790 -1.129422 13.093113 -0.893514 -1.776710 -11.872819 -1.232304 6.740243 8.017885 9.791946 11.223992 24.347800 18.376886 68.689474 53.649602 -38.940277 -5.376174 -2.221523 -75.415867 -15.793244 10.437393 -12.370711 -4.218849 19.898516 -21.896259 -65.479088 32.663239 72.302703 14.936477 23.167676 43.413511 -1.004229 5.639267 1.123884 -4.689923 10.469120 -9.912795 -2.017730 -20.169706 2.199258 -0.601864 -10.178512 8.563372 -21.534638 13.138774 8.808112 14.743125 4.576391 -24.466493 -2.072059 -20.975941 0.467050 -0.450180 -1.626967 0.663467
40.252629 83.965115 7.954417 59.619814 14.624864 -0.252033 -2.854725 -2.882538 1.377812 -0.244260 -1.149822 0.521609 -0.244260 -1.149822 0.521609 -0.182207 -0.862576 0.390734 -0.996046 12.782037 -0.905373 -1.518255 -12.450495 -1.308150 6.849815 7.738165 9.773899 10.452911 24.588405 18.214746 69.381963 54.061084 -39.264759 -5.351422 -2.224478 -75.453764 -15.402492 10.351190 -12.231770 -3.203181 20.563766 -22.194907 -66.445905 33.498723 72.437450 15.546289 22.928471 44.005780 -0.970682 5.462641 1.094660 -4.714789 10.481786 -9.989836 -1.918691 -20.228215 2.148464 -0.708389 -10.329883 8.667465 -21.387801 12.981248 8.973035 14.625289 4.584887 -24.657899 -2.152427 -20.991545 0.278071 -0.385296 -1.646504 0.725851
40.504986 83.866708 8.034926 59.591457 14.922850 -0.257697 -2.962697 -2.880743 1.455942 -0.285336 -1.158550 0.547586 -0.285336 -1.158550 0.547586 -0.212957 -0.869169 0.410134 -0.873857 12.530451 -0.896238 -1.288900 -12.917404 -1.340933 7.078068 7.632999 9.825583 9.420475 24.773371 18.034118 70.068037 54.488974 -39.641703 -5.338541 -2.223654 -75.498183 -15.070316 10.431764 -12.171933 -2.080177 20.935569 -22.239695 -67.636309 34.224244 72.297466 16.024169 22.742714 44.520042 -0.944220 5.338666 1.071028 -4.778219 10.490472 -10.047148 -1.774666 -20.283407 2.095136 -0.834406 -10.467626 8.771756 -21.154376 12.883700 9.178784 14.376571 4.570841 -24.875114 -2.233411 -21.006771 0.107517 -0.294448 -1.659126 0.783926
